<svg xmlns="http://www.w3.org/2000/svg" width="42.273" height="50.181" viewBox="0 0 42.273 50.181">
  <path id="Caminho_100" data-name="Caminho 100" d="M66.43,36.715h-4v-14.8A1.019,1.019,0,0,0,61.41,20.9H49.826a1.019,1.019,0,0,0-.782,1.671l2.824,3.387-2.824,3.387a1.019,1.019,0,0,0,.782,1.671H60.391v5.7h-4a1.019,1.019,0,0,0-1.019,1.019v7.078H46.348A1.019,1.019,0,0,0,45.33,45.83v7.049H36.272A1.019,1.019,0,0,0,35.253,53.9v7.078H26.195a1.019,1.019,0,0,0-1.019,1.019v8.068a1.019,1.019,0,0,0,1.019,1.019H36.236l.018,0,.018,0H46.313l.018,0,.017,0H66.43a1.019,1.019,0,0,0,1.019-1.019V61.995c0-.005,0-.01,0-.015s0-.009,0-.015V45.83c0-.005,0-.01,0-.015s0-.009,0-.015V37.734A1.019,1.019,0,0,0,66.43,36.715ZM35.217,69.044h-8v-6.03h8Zm10.077,0h-8v-6.03h8Zm0-8.1h-8v-6.03h8Zm10.076,8.1h-8v-6.03h8Zm0-8.1h-8v-6.03h8Zm0-8.068h-8v-6.03h8ZM52,28.98l1.975-2.369a1.019,1.019,0,0,0,0-1.3L52,22.937h8.39V28.98Zm13.41,40.064h-8v-6.03h8Zm0-8.1h-8v-6.03h8Zm0-8.068h-8v-6.03h8Zm0-8.1h-8v-6.03h8Z" transform="translate(-25.176 -20.9)" fill="#fac823"/>
</svg>
