<svg xmlns="http://www.w3.org/2000/svg" width="40" height="51.104" viewBox="0 0 40 51.104">
  <path id="Caminho_99" data-name="Caminho 99" d="M32.968,42.414l2.851,3.871-.534,4.781a1.12,1.12,0,0,0,.665,1.151l4.41,1.923,1.923,4.41a1.12,1.12,0,0,0,1.15.665l.254-.028V71.734a1.12,1.12,0,0,0,1.619,1l7.444-3.7,7.444,3.7a1.12,1.12,0,0,0,1.619-1V59.187l.254.028a1.121,1.121,0,0,0,1.15-.665l1.923-4.41,4.41-1.923a1.12,1.12,0,0,0,.665-1.151l-.534-4.781,2.851-3.871a1.12,1.12,0,0,0,0-1.329l-2.851-3.871.534-4.781a1.12,1.12,0,0,0-.665-1.151l-4.41-1.923-1.923-4.41a1.122,1.122,0,0,0-1.151-.665l-4.781.534-3.871-2.851a1.122,1.122,0,0,0-1.329,0l-3.871,2.851-4.781-.534a1.123,1.123,0,0,0-1.151.665l-1.924,4.41-4.41,1.924a1.12,1.12,0,0,0-.665,1.151l.534,4.781-2.851,3.871A1.12,1.12,0,0,0,32.968,42.414Zm26.6,27.512-6.324-3.144a1.12,1.12,0,0,0-1,0l-6.324,3.144V58.937l2.287-.255,3.871,2.85a1.12,1.12,0,0,0,1.329,0l3.871-2.85,2.287.255ZM37.882,38.19a1.121,1.121,0,0,0,.211-.788l-.49-4.4,4.055-1.769a1.122,1.122,0,0,0,.579-.579L44.006,26.6l4.4.49a1.108,1.108,0,0,0,.788-.211l3.56-2.621,3.56,2.621a1.112,1.112,0,0,0,.788.211l4.4-.49,1.769,4.055a1.119,1.119,0,0,0,.579.579L67.9,33.006l-.49,4.4a1.121,1.121,0,0,0,.211.788l2.621,3.56-2.621,3.56a1.118,1.118,0,0,0-.211.788l.49,4.4-4.056,1.769a1.115,1.115,0,0,0-.579.579L61.493,56.9l-4.4-.491a1.118,1.118,0,0,0-.788.211l-3.56,2.621-3.56-2.621a1.118,1.118,0,0,0-.287-.148l-.047-.018a1.108,1.108,0,0,0-.3-.048c-.009,0-.017,0-.026,0a1.143,1.143,0,0,0-.124.007l-4.4.491-1.769-4.056a1.119,1.119,0,0,0-.579-.579L37.6,50.494l.49-4.4a1.118,1.118,0,0,0-.211-.788l-2.621-3.56Z" transform="translate(-32.75 -21.75)" fill="#fbb304"/>
</svg>
