<svg xmlns="http://www.w3.org/2000/svg" width="50.149" height="52.068" viewBox="0 0 50.149 52.068">
  <g id="Grupo_87" data-name="Grupo 87" transform="translate(-382.364 -1624.896)">
    <path id="Caminho_86" data-name="Caminho 86" d="M41.189,53.375a14.336,14.336,0,0,0,4.782,11.168,9.1,9.1,0,0,1,2.46,3.6,2.675,2.675,0,0,0-.3,1.216,2.646,2.646,0,0,0,.556,1.614,2.623,2.623,0,0,0,0,3.238,2.65,2.65,0,0,0-.559,1.618,2.681,2.681,0,0,0,2.677,2.677h1.026a3.635,3.635,0,0,0,3.471,2.57h.514a3.636,3.636,0,0,0,3.471-2.57h1.027a2.681,2.681,0,0,0,2.677-2.677,2.654,2.654,0,0,0-.559-1.618,2.622,2.622,0,0,0,0-3.236,2.639,2.639,0,0,0,.561-1.616,2.666,2.666,0,0,0-.319-1.247,8.381,8.381,0,0,1,2.344-3.458A14.375,14.375,0,1,0,41.189,53.375ZM55.817,78.962H55.3a1.51,1.51,0,0,1-1.077-.452h2.667A1.507,1.507,0,0,1,55.817,78.962Zm4.5-2.57H50.806a.559.559,0,1,1,0-1.117h9.509a.559.559,0,0,1,0,1.117Zm0-3.236H50.806a.559.559,0,1,1,0-1.117h9.509a.559.559,0,0,1,0,1.117Zm.4-3.408a.576.576,0,0,1-.4.171H50.806a.555.555,0,0,1-.555-.555A.529.529,0,0,1,50.383,69c.015-.016.03-.033.044-.05a.618.618,0,0,1,.13-.087.525.525,0,0,1,.25-.058h9.508a.543.543,0,0,1,.252.062.584.584,0,0,1,.162.12h0a.553.553,0,0,1-.013.762ZM54.775,41.606q.4-.025.792-.025a12.252,12.252,0,0,1,8.055,21.483,10.456,10.456,0,0,0-2.689,3.693c-.04-.01-.081-.014-.121-.022-.061-.012-.122-.025-.184-.032a2.686,2.686,0,0,0-.314-.018H50.806a2.76,2.76,0,0,0-.326.019c-.05.006-.1.018-.148.027s-.113.018-.168.031l-.008,0a11.248,11.248,0,0,0-2.773-3.8,12.251,12.251,0,0,1,7.391-21.358Z" transform="translate(352.096 1595.883)" fill="#fbb304"/>
    <path id="Caminho_87" data-name="Caminho 87" d="M64.026,72.168a1.63,1.63,0,1,0,1.594,1.593A1.621,1.621,0,0,0,64.026,72.168Z" transform="translate(343.737 1582.976)" fill="#fbb304"/>
    <path id="Caminho_88" data-name="Caminho 88" d="M63.956,63.66a1.232,1.232,0,0,0,1.229-1.141l.58-7.821a1.233,1.233,0,0,0-1.229-1.323h-1.16A1.232,1.232,0,0,0,62.148,54.7l.58,7.821A1.232,1.232,0,0,0,63.956,63.66Z" transform="translate(343.823 1590.393)" fill="#fbb304"/>
    <path id="Caminho_89" data-name="Caminho 89" d="M100.909,63.968a1.059,1.059,0,0,0,0-2.119H96.85a1.059,1.059,0,0,0,0,2.119Z" transform="translate(330.544 1587.048)" fill="#fbb304"/>
    <path id="Caminho_90" data-name="Caminho 90" d="M24.211,64.015H28.27a1.059,1.059,0,0,0,0-2.119H24.211a1.059,1.059,0,1,0,0,2.119Z" transform="translate(359.212 1587.03)" fill="#fbb304"/>
    <path id="Caminho_91" data-name="Caminho 91" d="M87.926,38.481l2.87-2.87a1.059,1.059,0,0,0-1.5-1.5l-2.87,2.871a1.059,1.059,0,1,0,1.5,1.5Z" transform="translate(334.361 1598.117)" fill="#fbb304"/>
    <path id="Caminho_92" data-name="Caminho 92" d="M64.919,27.318V23.259a1.059,1.059,0,0,0-2.119,0v4.059a1.059,1.059,0,0,0,2.119,0Z" transform="translate(343.564 1602.696)" fill="#fbb304"/>
    <path id="Caminho_93" data-name="Caminho 93" d="M36.563,34.148a1.059,1.059,0,0,0-1.5,1.5l2.87,2.87a1.059,1.059,0,0,0,1.5-1.5Z" transform="translate(354.632 1598.104)" fill="#fbb304"/>
  </g>
</svg>
